<?xml version="1.0" standalone="no"?><!DOCTYPE svg PUBLIC "-//W3C//DTD SVG 1.1//EN" "http://www.w3.org/Graphics/SVG/1.1/DTD/svg11.dtd"><svg viewBox="0 0 106 85" version="1.1" xmlns="http://www.w3.org/2000/svg" fill="#0BBE06"><path d="M105.1468,21.1958 C105.1468,20.7428 104.7828,20.3798 104.3258,20.3798 L96.1748,20.3798 C95.7278,20.3798 95.3638,20.7428 95.3638,21.1958 L95.3638,63.6108 C95.3638,64.0718 95.7278,64.4188 96.1748,64.4188 L104.3258,64.4188 C104.7828,64.4188 105.1468,64.0718 105.1468,63.6108 L105.1468,21.1958 Z"></path><path d="M28.7298,60.772 C27.2008,60.772 25.9808,59.855 25.9808,58.721 L25.9808,26.502 C25.9808,25.376 27.2008,24.459 28.7298,24.459 C30.2458,24.459 31.4698,25.376 31.4698,26.502 L31.4698,58.721 C31.4698,59.855 30.2458,60.772 28.7298,60.772 M41.6908,64.479 L37.8488,64.479 C36.9448,64.479 36.4228,64.459 36.3248,64.211 C39.2418,62.868 41.1298,60.772 41.1298,58.4 L41.1298,26.502 C41.1298,22.439 35.5598,19.146 28.7058,19.146 C21.8538,19.146 16.2768,22.439 16.2768,26.502 L16.2768,58.4 C16.2768,62.474 21.8538,65.772 28.7058,65.772 C29.6888,65.772 30.6538,65.689 31.5778,65.569 C31.6708,66.672 31.9568,67.21 32.6398,67.934 C33.6488,68.803 34.8978,69.168 37.1748,69.199 L41.6908,69.199 C42.1578,69.199 42.5168,68.845 42.5168,68.403 L42.5168,65.312 C42.5168,64.395 41.6908,64.479 41.6908,64.479"></path><path d="M8.972,20.3799 L0.821,20.3799 C0.364,20.3799 0,20.7429 0,21.1959 L0,29.3529 C0,29.8039 0.364,30.1779 0.821,30.1779 L8.972,30.1779 C9.434,30.1779 9.779,29.8039 9.779,29.3529 L9.779,21.1959 C9.779,20.7429 9.434,20.3799 8.972,20.3799"></path><path d="M56.6536,20.4507 L48.5036,20.4507 C48.0556,20.4507 47.6966,20.8047 47.6966,21.2627 L47.6966,63.6607 C47.6966,64.1297 48.0556,64.4787 48.5036,64.4787 L56.6536,64.4787 C57.0916,64.4787 57.4456,64.1297 57.4456,63.6607 L57.4456,21.2627 C57.4456,20.8047 57.0916,20.4507 56.6536,20.4507"></path><path d="M8.972,34.7549 L0.821,34.7549 C0.364,34.7549 0,35.1209 0,35.5649 L0,63.6109 C0,64.0719 0.364,64.4189 0.821,64.4189 L8.972,64.4189 C9.434,64.4189 9.779,64.0719 9.779,63.6109 L9.779,35.5649 C9.779,35.1209 9.434,34.7549 8.972,34.7549"></path><path d="M91.6399,21.4829 C91.6689,21.3789 91.6949,21.3019 91.6949,21.1959 C91.6949,20.7759 91.2019,20.4329 90.7749,20.3949 L82.5759,20.3799 C81.9649,20.3799 81.7729,20.8969 81.7729,20.9229 L76.4269,34.6909 L71.0499,20.8639 C70.9169,20.5669 70.6419,20.3799 70.2979,20.3799 L61.6809,20.3949 C61.2569,20.4329 61.0949,20.7759 61.0949,21.1959 C61.0949,21.3019 61.1339,21.4829 61.1339,21.4829 L71.3549,47.8849 L71.3549,63.5879 L71.3549,63.6109 C71.3549,64.0719 71.7199,64.4189 72.1609,64.4189 L75.6439,64.4189 L76.8259,64.4189 L80.5869,64.4189 C81.0449,64.4189 81.4099,64.0719 81.4099,63.6109 L81.4099,63.5879 L81.4099,47.8849 L91.6399,21.4829 Z"></path><path d="M105.1126,16.2329 C104.9546,14.0009 104.3496,11.0249 102.9096,8.9949 C101.4626,6.9249 100.0606,5.9249 98.0686,5.0189 C92.2396,2.3429 74.0756,-0.0001 52.5916,-0.0001 L52.5816,-0.0001 C31.0816,-0.0001 12.9056,2.3429 7.0876,5.0189 C5.0916,5.9249 3.6886,6.9249 2.2176,8.9949 C0.8066,11.0249 0.1866,14.0009 0.0296,16.2329 C0.0096,16.4969 0.1326,16.9979 0.6396,16.9979 L9.2476,16.9979 C9.7786,16.9979 9.8426,16.5829 9.9556,16.2539 C10.2996,15.2729 11.0816,13.7249 12.0206,12.8929 C13.6276,11.4649 14.7126,11.0499 16.9206,10.7369 C25.8916,9.4229 40.2106,8.7229 52.5816,8.7229 C64.9266,8.7229 79.2646,9.4229 88.2216,10.7369 C90.4296,11.0499 91.5226,11.4649 93.1156,12.8929 C94.0656,13.7249 94.8666,15.2729 95.1906,16.2539 C95.2996,16.5829 95.3636,16.9979 95.9096,16.9979 L104.5226,16.9979 C105.0336,16.9979 105.1416,16.4969 105.1126,16.2329"></path><path d="M105.1126,68.7549 C104.9546,70.9649 104.3496,73.9479 102.9096,75.9869 C101.4626,78.0439 100.0606,79.0519 98.0686,79.9519 C92.2396,82.6129 74.0756,84.9569 52.5916,84.9569 L52.5816,84.9569 C31.0816,84.9569 12.9056,82.6129 7.0876,79.9519 C5.0916,79.0519 3.6886,78.0439 2.2176,75.9869 C0.8066,73.9479 0.1866,70.9649 0.0296,68.7549 C0.0096,68.4489 0.1326,67.9669 0.6396,67.9669 L9.2476,67.9899 C9.7786,67.9899 9.8426,68.4129 9.9556,68.6899 C10.2996,69.6989 11.0816,71.2519 12.0206,72.0899 C13.6276,73.5049 14.7126,73.9179 16.9206,74.2459 C25.8916,75.5479 40.2106,76.2539 52.5816,76.2539 C64.9266,76.2539 79.2646,75.5479 88.2216,74.2459 C90.4296,73.9179 91.5226,73.5049 93.1156,72.0899 C94.0656,71.2519 94.8666,69.6889 95.1906,68.6899 C95.2996,68.4129 95.3636,67.9899 95.9096,67.9899 L104.5226,67.9669 C105.0336,67.9669 105.1416,68.4489 105.1126,68.7549"></path></svg>