<?xml version="1.0" standalone="no"?><!DOCTYPE svg PUBLIC "-//W3C//DTD SVG 1.1//EN" "http://www.w3.org/Graphics/SVG/1.1/DTD/svg11.dtd"><svg t="1652532275926" class="icon" viewBox="0 0 1024 1024" version="1.1" xmlns="http://www.w3.org/2000/svg" p-id="3207" xmlns:xlink="http://www.w3.org/1999/xlink" width="200" height="200"><defs><style type="text/css"></style></defs><path d="M471.04 455.68h312.32c43.52 0 76.8-35.84 76.8-76.8 0-43.52-35.84-76.8-76.8-76.8H471.04c-43.52 0-76.8 35.84-76.8 76.8s33.28 76.8 76.8 76.8z" fill="#F42100" p-id="3208"></path><path d="M704 637.44c0-43.52-35.84-76.8-76.8-76.8H289.28V117.76c0-43.52-35.84-76.8-76.8-76.8-43.52 0-76.8 35.84-76.8 76.8v519.68c0 43.52 35.84 76.8 76.8 76.8h414.72c40.96 0 76.8-33.28 76.8-76.8z m76.8 181.76H471.04c-43.52 0-76.8 35.84-76.8 76.8 0 43.52 35.84 76.8 76.8 76.8h312.32c43.52 0 76.8-35.84 76.8-76.8 0-43.52-35.84-76.8-79.36-76.8z" fill="#F42100" p-id="3209"></path></svg>