<?xml version="1.0" standalone="no"?><!DOCTYPE svg PUBLIC "-//W3C//DTD SVG 1.1//EN" "http://www.w3.org/Graphics/SVG/1.1/DTD/svg11.dtd"><svg t="1636455503991" class="icon" viewBox="0 0 1024 1024" version="1.1" xmlns="http://www.w3.org/2000/svg" p-id="5331" xmlns:xlink="http://www.w3.org/1999/xlink" width="200" height="200"><defs><style type="text/css"></style></defs><path d="M229.984 0.16l202.656 574.304v-0.288l16.032 45.216c89.088 252.064 136.96 387.2 137.216 387.488 0.16 0 13.664 0.864 29.952 1.696 49.312 2.144 110.496 7.68 156.832 13.216 10.656 1.28 19.872 1.696 20.48 1.28l-200.96-570.016-18.592-52.48-103.392-292.256c-19.616-55.456-36.256-102.752-37.12-104.544l-1.312-3.808h-201.6z" fill="#E50914" p-id="5332"></path><path d="M592.992 0.512l-0.416 226.4-0.352 226.4-18.656-52.576v-0.096l-24.096 503.904c23.68 66.848 36.352 102.528 36.48 102.688 0.16 0.16 13.664 1.024 29.952 1.792 49.376 2.144 110.496 7.68 157.024 13.216 10.656 1.28 19.936 1.696 20.48 1.28s0.864-231.264 0.736-512.416L793.792 0.416h-200.8zM229.984 0.096V511.68c0 281.344 0.288 511.776 0.64 512.128s17.76-1.28 38.688-3.68c20.896-2.56 49.92-5.536 64.416-6.816a2580.16 2580.16 0 0 1 95.904-6.4c2.208 0 2.4-11.52 2.688-216.736l0.352-216.736 16.224 45.216 5.536 16.032 24.32-503.456-8.096-23.296L433.12 3.84l-1.28-3.712H229.984z" fill="#E50914" p-id="5333"></path></svg>