<?xml version="1.0" standalone="no"?><!DOCTYPE svg PUBLIC "-//W3C//DTD SVG 1.1//EN" "http://www.w3.org/Graphics/SVG/1.1/DTD/svg11.dtd"><svg t="1652531678449" class="icon" viewBox="0 0 1024 1024" version="1.1" xmlns="http://www.w3.org/2000/svg" p-id="2698" xmlns:xlink="http://www.w3.org/1999/xlink" width="200" height="200"><defs><style type="text/css"></style></defs><path d="M429.615643 233.951703c-63.5183-61.91164-127.036599-123.831782-189.798324-185.02085 15.378025-16.23661 30.399015-32.073681 46.083071-48.633323 75.529991 73.515291 150.226899 146.214502 225.425358 219.406761C586.626215 146.367517 661.365628 73.574797 736.912621 0c15.123 16.389626 29.914467 32.405214 45.283991 49.058366-61.741624 60.185969-125.820979 122.641664-189.891833 185.097358 0.187019 0.739573 0.374037 1.470646 0.561056 2.210219 3.204818 0 6.409636 0 9.614454 0 106.932105 0 213.864211 0 320.796316 0 52.739231 0 89.981424 36.825652 90.006927 89.352362 0.059506 145.729953 0 291.459907-0.051005 437.18986-0.008501 26.701148 0.476047 53.419298-0.476047 80.094944-1.496148 41.773143-35.848055 77.74021-77.927229 79.788913-38.398308 1.870185-76.93263 1.215621-115.407446 1.088108-7.616755-0.025503-11.722663 2.490747-15.599047 8.781371-16.23661 26.378116-32.957769 52.458703-49.619421 78.573293-10.88958 17.069693-28.792356 17.027189-39.766944-0.170017-16.976184-26.582136-33.858858-53.223779-50.51201-80.009935-3.213319-5.168513-6.843179-7.106705-13.031792-7.098204-96.382559 0.195519-192.765118 0.20402-289.147678-0.008501-6.273622-0.017002-9.707963 2.176216-12.887278 7.302224-16.483135 26.556634-33.238297 52.943251-50.035963 79.312866-11.49314 18.04729-29.174894 17.868772-40.685035-0.289029-16.593646-26.157094-33.340307-52.212178-49.568416-78.590295-3.62986-5.899585-7.718766-7.76127-14.442932-7.735767-33.629335 0.10201-67.386183 1.436642-100.871004-0.926592-50.784037-3.578855-82.492182-39.664934-82.551687-90.703996C10.609086 745.098899 10.677093 657.888749 10.677093 570.6786c0-81.242558-0.068007-162.493616 0.025503-243.736174 0.051005-46.967158 28.02728-80.911025 73.778817-89.63289 4.709467-0.901089 9.639956-0.901089 14.468435-0.90959 106.643077-0.051005 213.294654-0.034003 319.937731-0.034003 3.306828 0 6.605155 0 9.903482 0C429.071589 235.558363 429.343616 234.759283 429.615643 233.951703z" p-id="2699"></path></svg>