<?xml version="1.0" encoding="utf-8"?>
<!-- Generator: Adobe Illustrator 21.0.2, SVG Export Plug-In . SVG Version: 6.00 Build 0)  -->
<svg version="1.1" id="圖層_1" xmlns="http://www.w3.org/2000/svg" xmlns:xlink="http://www.w3.org/1999/xlink" x="0px" y="0px"
	 viewBox="0 0 113.1 67" style="enable-background:new 0 0 113.1 67;" xml:space="preserve">
<style type="text/css">
	.st0{fill:#FFFFFF;}
	.st1{fill-rule:evenodd;clip-rule:evenodd;fill:url(#SVGID_1_);}
</style>
<g>
	<path class="st0" d="M104.6,25.3c0,0.1,0,0.2-0.1,0.3c-0.1,0.1-0.2,0.2-0.3,0.3l-10.1,7.4c-0.3,0.2-0.7,0.2-1-0.1
		c-0.2-0.3-0.2-0.7-0.2-0.9l0-14.2c0-0.2,0-0.6,0.2-0.9c0.2-0.3,0.7-0.3,1-0.1l10.2,7.5c0.1,0.1,0.2,0.2,0.3,0.2
		c0.1,0.1,0.1,0.2,0.1,0.3C104.6,25.1,104.6,25.2,104.6,25.3C104.6,25.2,104.6,25.2,104.6,25.3z"/>
	<g>
		<path class="st0" d="M49.4,49.2h2.1v1.6h0c0.4-0.6,1-1.1,1.7-1.4c0.7-0.3,1.4-0.5,2.2-0.5c0.9,0,1.6,0.1,2.3,0.4
			c0.7,0.3,1.3,0.7,1.8,1.2c0.5,0.5,0.9,1.2,1.1,1.9c0.3,0.7,0.4,1.5,0.4,2.3c0,0.8-0.1,1.6-0.4,2.3c-0.3,0.7-0.6,1.3-1.1,1.9
			c-0.5,0.5-1.1,0.9-1.8,1.2c-0.7,0.3-1.5,0.4-2.3,0.4c-0.8,0-1.6-0.2-2.3-0.5c-0.7-0.3-1.2-0.8-1.6-1.4h0V67h-2.1V49.2z M55.2,50.9
			c-0.6,0-1.1,0.1-1.5,0.3c-0.5,0.2-0.8,0.5-1.2,0.8c-0.3,0.3-0.6,0.7-0.7,1.2c-0.2,0.5-0.3,1-0.3,1.6c0,0.6,0.1,1.1,0.3,1.6
			c0.2,0.5,0.4,0.9,0.7,1.2c0.3,0.3,0.7,0.6,1.2,0.8c0.5,0.2,1,0.3,1.5,0.3c0.6,0,1.1-0.1,1.5-0.3c0.5-0.2,0.8-0.5,1.2-0.8
			c0.3-0.3,0.6-0.7,0.7-1.2c0.2-0.5,0.3-1,0.3-1.6c0-0.6-0.1-1.1-0.3-1.6c-0.2-0.5-0.4-0.9-0.7-1.2c-0.3-0.3-0.7-0.6-1.2-0.8
			C56.3,51,55.8,50.9,55.2,50.9z"/>
		<path class="st0" d="M64,42.5h2.1v17.8H64V42.5z"/>
		<path class="st0" d="M69.5,50.6c0.6-0.6,1.3-1,2.1-1.2c0.8-0.3,1.6-0.4,2.4-0.4c0.8,0,1.5,0.1,2.1,0.3c0.6,0.2,1.1,0.5,1.4,0.8
			c0.4,0.3,0.7,0.7,0.8,1.2c0.2,0.4,0.3,0.9,0.3,1.4v5.7c0,0.4,0,0.8,0,1.1c0,0.3,0,0.6,0.1,0.9h-1.9c0-0.6-0.1-1.1-0.1-1.7h0
			c-0.5,0.7-1,1.2-1.7,1.5c-0.6,0.3-1.4,0.4-2.2,0.4c-0.5,0-1-0.1-1.5-0.2c-0.5-0.1-0.9-0.4-1.2-0.6c-0.4-0.3-0.6-0.6-0.8-1
			c-0.2-0.4-0.3-0.9-0.3-1.4c0-0.7,0.2-1.3,0.5-1.8c0.3-0.5,0.8-0.9,1.3-1.2c0.6-0.3,1.2-0.5,2-0.7c0.7-0.1,1.5-0.2,2.4-0.2h1.6V53
			c0-0.3-0.1-0.6-0.2-0.8c-0.1-0.3-0.3-0.5-0.5-0.8c-0.2-0.2-0.5-0.4-0.8-0.5c-0.3-0.1-0.7-0.2-1.2-0.2c-0.4,0-0.8,0-1.1,0.1
			c-0.3,0.1-0.6,0.2-0.8,0.3c-0.3,0.1-0.5,0.3-0.7,0.4c-0.2,0.2-0.4,0.3-0.6,0.4L69.5,50.6z M75.5,55c-0.5,0-1,0-1.5,0.1
			c-0.5,0.1-1,0.2-1.4,0.3c-0.4,0.2-0.8,0.4-1.1,0.7c-0.3,0.3-0.4,0.6-0.4,1.1c0,0.6,0.2,1.1,0.6,1.4c0.4,0.3,1,0.4,1.8,0.4
			c0.6,0,1.1-0.1,1.5-0.3c0.4-0.2,0.7-0.5,1-0.8c0.3-0.3,0.4-0.7,0.5-1c0.1-0.4,0.2-0.8,0.2-1.1V55H75.5z"/>
		<path class="st0" d="M80.4,49.2h2.4l3.3,8.7h0l3.2-8.7h2.3l-5.3,13.6c-0.2,0.5-0.4,0.9-0.6,1.3c-0.2,0.4-0.4,0.7-0.7,1
			c-0.3,0.3-0.6,0.5-1,0.7c-0.4,0.2-0.9,0.2-1.5,0.2c-0.3,0-0.6,0-1-0.1c-0.3,0-0.6-0.1-0.9-0.2l0.3-1.9c0.4,0.2,0.8,0.3,1.3,0.3
			c0.3,0,0.6,0,0.8-0.1c0.2-0.1,0.4-0.2,0.6-0.4c0.2-0.2,0.3-0.4,0.4-0.6c0.1-0.2,0.2-0.5,0.3-0.8l0.7-1.8L80.4,49.2z"/>
		<path class="st0" d="M95.1,55.6c0,0.5,0.1,0.9,0.3,1.3c0.2,0.4,0.5,0.7,0.8,1c0.3,0.3,0.7,0.5,1.2,0.7c0.5,0.2,0.9,0.2,1.4,0.2
			c0.7,0,1.2-0.2,1.7-0.5c0.5-0.3,0.9-0.7,1.3-1.2l1.6,1.2c-1.2,1.5-2.8,2.3-4.9,2.3c-0.9,0-1.7-0.1-2.4-0.4
			c-0.7-0.3-1.3-0.7-1.8-1.2c-0.5-0.5-0.9-1.1-1.1-1.9c-0.3-0.7-0.4-1.5-0.4-2.3c0-0.8,0.1-1.6,0.4-2.3c0.3-0.7,0.7-1.3,1.2-1.9
			c0.5-0.5,1.1-0.9,1.8-1.2c0.7-0.3,1.5-0.4,2.3-0.4c1,0,1.8,0.2,2.5,0.5c0.7,0.3,1.2,0.8,1.7,1.4c0.4,0.6,0.8,1.2,1,1.9
			c0.2,0.7,0.3,1.4,0.3,2.1v0.8H95.1z M101.8,53.9c0-0.5-0.1-0.9-0.2-1.3c-0.1-0.4-0.3-0.7-0.6-1c-0.3-0.3-0.6-0.5-1-0.7
			c-0.4-0.2-0.9-0.2-1.4-0.2c-0.5,0-1,0.1-1.4,0.3c-0.4,0.2-0.8,0.5-1.1,0.8c-0.3,0.3-0.5,0.7-0.7,1c-0.2,0.4-0.2,0.8-0.2,1.1H101.8
			z"/>
		<path class="st0" d="M106.6,49.2h2.1v1.7h0c0.1-0.3,0.3-0.6,0.6-0.8c0.2-0.2,0.5-0.5,0.8-0.6c0.3-0.2,0.6-0.3,1-0.4
			c0.3-0.1,0.7-0.2,1-0.2c0.3,0,0.7,0,0.9,0.1l-0.1,2.3c-0.2,0-0.3-0.1-0.5-0.1c-0.2,0-0.3,0-0.5,0c-1,0-1.8,0.3-2.4,0.9
			c-0.6,0.6-0.8,1.5-0.8,2.7v5.6h-2.1V49.2z"/>
	</g>
	<linearGradient id="SVGID_1_" gradientUnits="userSpaceOnUse" x1="39.4859" y1="0" x2="39.4859" y2="50.2891">
		<stop  offset="0" style="stop-color:#FFC415"/>
		<stop  offset="0.5141" style="stop-color:#F79528"/>
		<stop  offset="1" style="stop-color:#F26723"/>
	</linearGradient>
	<path class="st1" d="M8.3,15.3c1.7-1.6,4.1-2.5,6.3-2.5c6.3,0,8,3.8,8.4,6.9c2-4.1,6.2-6.9,11.1-6.9c3.4,0,6.5,1.4,8.7,3.7l-0.9-3
		h8.5l3.1,11.4l3-11.4h7.5l3,11.4l3.2-11.4H79l-7.3,23.3h-8.3l-2.9-11.5l-3,11.5h-8.3l-3-9.5c-1,5.8-6,10.2-12.1,10.2
		c-4.8,0-8.9-2.7-10.9-6.7v6h-8.5V25.5c0-2.4,0.5-5.4-2.9-5.4c-2.1,0-3.2,1.8-3.2,4v12.6H0V13.4h8.3V15.3z M34.1,29.8
		c2.6,0,4.7-2.1,4.7-4.7c0-2.6-2.1-4.7-4.7-4.7c-2.6,0-4.7,2.1-4.7,4.7C29.4,27.7,31.5,29.8,34.1,29.8z M32.4,39.8 M32.4,39.8h3.5
		v10.5h-3.5V39.8z M32.4,0 M32.4,0h3.5v10.5h-3.5V0z"/>
	<path class="st0" d="M97.3,41c-8.7,0-15.9-7.1-15.9-15.9c0-8.7,7.1-15.9,15.9-15.9c8.7,0,15.9,7.1,15.9,15.9
		C113.1,33.9,106,41,97.3,41z M97.3,11.1c-7.7,0-14,6.3-14,14c0,7.7,6.3,14,14,14c7.7,0,14-6.3,14-14C111.3,17.4,105,11.1,97.3,11.1
		z"/>
</g>
</svg>
