<?xml version="1.0" standalone="no"?><!DOCTYPE svg PUBLIC "-//W3C//DTD SVG 1.1//EN" "http://www.w3.org/Graphics/SVG/1.1/DTD/svg11.dtd"><svg t="1652532157625" class="icon" viewBox="0 0 1024 1024" version="1.1" xmlns="http://www.w3.org/2000/svg" p-id="2378" xmlns:xlink="http://www.w3.org/1999/xlink" width="200" height="200"><defs><style type="text/css"></style></defs><path d="M235.52 911.36c5.12-35.84 48.64-40.96 84.48-28.16 48.64 17.92 125.44 46.08 194.56 46.08 256 0 460.8-207.36 460.8-460.8 0-256-207.36-460.8-460.8-460.8S51.2 212.48 51.2 468.48v458.24c0 51.2 40.96 92.16 92.16 92.16 25.6 0 48.64-10.24 66.56-30.72 20.48-23.04 20.48-46.08 25.6-76.8zM512 742.4c-153.6 0-276.48-125.44-276.48-276.48S358.4 186.88 512 186.88s276.48 125.44 276.48 276.48S665.6 742.4 512 742.4z" fill="#016ED2" p-id="2379"></path><path d="M670.72 458.24c0 87.04-71.68 158.72-158.72 158.72s-158.72-71.68-158.72-158.72c0-87.04 71.68-158.72 158.72-158.72 87.04 0 158.72 71.68 158.72 158.72z" fill="#FB7E00" p-id="2380"></path></svg>