<?xml version="1.0" standalone="no"?><!DOCTYPE svg PUBLIC "-//W3C//DTD SVG 1.1//EN" "http://www.w3.org/Graphics/SVG/1.1/DTD/svg11.dtd"><svg t="1633450626609" class="icon" viewBox="0 0 1024 1024" version="1.1" xmlns="http://www.w3.org/2000/svg" p-id="11974" xmlns:xlink="http://www.w3.org/1999/xlink" width="200" height="200"><defs><style type="text/css"></style></defs><path d="M490.666667 384h-192v-64h192v64z m-128 0h64v192h-64v-192z m245.333333 96L661.333333 320h64l-85.333333 256h-64l-85.333333-256h64l53.333333 160zM741.653333 896h-437.973333a11.242667 11.242667 0 0 1-8.106667-19.029333l218.965334-228.48a11.242667 11.242667 0 0 1 16.256 0l218.965333 228.48a11.242667 11.242667 0 0 1-8.106667 19.029333z m-480.853333-202.666667a32 32 0 1 1 0 64H188.437333C119.744 757.333333 64 701.76 64 633.173333V241.493333C64 172.906667 119.744 117.333333 188.437333 117.333333h647.125334C904.256 117.333333 960 172.906667 960 241.493333v391.68c0 68.586667-55.744 124.16-124.437333 124.16H766.933333a32 32 0 0 1 0-64h68.608A60.309333 60.309333 0 0 0 896 633.173333V241.493333a60.309333 60.309333 0 0 0-60.437333-60.16H188.437333A60.309333 60.309333 0 0 0 128 241.493333v391.68a60.309333 60.309333 0 0 0 60.437333 60.16h72.362667z" p-id="11975" fill="#e0620d"></path></svg>